<?xml version="1.0" encoding="UTF-8"?><svg id="katman_2" xmlns="http://www.w3.org/2000/svg" viewBox="0 0 307.6 45.25"><defs><style>.cls-1{fill:#03214c;}.cls-2{fill:#ebc768;}.cls-3{fill:#2ea8b7;}</style></defs><g id="katman_1"><g><g><path className="cls-2" d="M48.37,34.51c1.73,5.22-2.18,10.6-7.74,10.63l-12.69,.04,16.89-21.19,3.54,10.52Z"/><polygon className="cls-3" points="40.04 9.51 44.87 23.98 27.98 45.17 11.53 45.25 11.53 45.21 40.04 9.51"/><path className="cls-1" d="M38.01,3.45l2.03,6.03L11.53,45.21l-6.42,.04c-4.28,0-6.64-4.86-4.02-8.18L29.2,1.91c2.51-3.14,7.56-2.27,8.81,1.53Z"/></g><g><path className="cls-1" d="M108.35,42.03h-5.72c-.55,0-1.03-.33-1.22-.84l-9.22-26.53-9.22,26.53c-.18,.51-.66,.84-1.22,.84h-5.83c-.55,0-1.03-.33-1.22-.88L61.96,3.63c-.15-.4-.07-.8,.18-1.13,.26-.33,.63-.51,1.03-.51h5.61c.55,0,1.03,.37,1.22,.88l9.15,27L88.65,2.83c.18-.51,.66-.84,1.22-.84h5.02c.55,0,1.03,.33,1.22,.84l9.29,27.15L114.73,2.83c.18-.51,.66-.84,1.22-.84h5.16c.41,0,.81,.18,1.03,.51,.22,.33,.3,.77,.18,1.13l-12.76,37.56c-.18,.51-.66,.84-1.22,.84Z"/><path className="cls-1" d="M160.2,17.99c-1.55-6.36-6.82-9.83-13.31-9.83s-11.69,3.54-13.24,9.83h26.55Zm-34.92,4.02c0-12.06,8.92-20.94,21.61-20.94s21.43,8.88,21.43,20.94v2.81h-34.92c1.14,7.09,6.49,11.03,13.5,11.03,5.2,0,8.85-1.61,11.21-5.08h8.52c-3.1,7.42-10.4,12.13-19.73,12.13-12.69,.04-21.61-8.84-21.61-20.9Z"/><path className="cls-1" d="M209.69,22.01c0-8.04-5.53-13.85-13.79-13.85s-13.79,5.81-13.79,13.85,5.53,13.85,13.79,13.85,13.79-5.81,13.79-13.85Zm-35.4,.33c0-12.46,8.92-21.23,21.68-21.23s21.35,8.51,21.35,21.23v19.55h-7.08v-8.7c-2.69,6.43-8.59,9.72-15.6,9.72-10.44,.04-20.36-7.45-20.36-20.57Z"/><path className="cls-1" d="M225.1,30.38h7.78c.15,3.29,3.25,5.63,8.85,5.63s8.85-2.48,8.85-5.63c0-3.76-4.24-4.27-9.26-4.9-6.97-.88-15.42-2.16-15.42-11.25,0-7.82,6.16-13.12,15.75-13.12s15.53,5.41,15.67,12.24h-7.63c-.26-3.07-3.1-5.3-7.97-5.3-5.13,0-8.04,2.41-8.04,5.55,0,3.76,4.24,4.2,9.18,4.82,6.97,.88,15.53,2.16,15.53,11.25,0,8.04-6.56,13.26-16.63,13.26s-16.41-5.33-16.67-12.57Z"/><path className="cls-1" d="M299.45,17.99c-1.55-6.36-6.82-9.83-13.31-9.83s-11.69,3.54-13.24,9.83h26.55Zm-34.89,4.02c0-12.06,8.92-20.94,21.61-20.94s21.43,8.84,21.43,20.94v2.81h-34.92c1.14,7.09,6.49,11.03,13.5,11.03,5.2,0,8.85-1.61,11.21-5.08h8.48c-3.1,7.42-10.4,12.13-19.73,12.13-12.65,.04-21.57-8.84-21.57-20.9Z"/></g></g></g></svg>