<?xml version="1.0" encoding="utf-8"?>
<!-- Generator: Adobe Illustrator 26.3.1, SVG Export Plug-In . SVG Version: 6.00 Build 0)  -->
<svg version="1.1" id="katman_1" xmlns="http://www.w3.org/2000/svg" xmlns:xlink="http://www.w3.org/1999/xlink" x="0px" y="0px"
	 viewBox="0 0 180 39" style="enable-background:new 0 0 180 39;" xml:space="preserve">
<style type="text/css">
	.st0{fill:#03214C;fill-opacity:0.3;}
	.st1{fill:#03214C;fill-opacity:0.5;}
	.st2{fill:#03214C;}
</style>
<g>
	<path className="st0" d="M39.4,29.9c1.4,4.4-1.8,8.9-6.3,8.9H22.8L36.5,21L39.4,29.9z"/>
	<path className="st1" d="M32.6,8.9L36.5,21L22.8,38.8L9.4,38.9l0,0L32.6,8.9z"/>
	<path className="st2" d="M31,3.8l1.6,5.1l-23.2,30H4.2c-3.5,0-5.4-4.1-3.3-6.9L23.8,2.5C25.8-0.1,29.9,0.6,31,3.8z"/>
	<path d="M69.9,16.6h-2.3c-0.2,0-0.4-0.1-0.5-0.3L63.3,5.4l-3.8,10.8c-0.1,0.2-0.3,0.3-0.5,0.3h-2.4c-0.2,0-0.4-0.1-0.5-0.4L51,0.9
		c-0.1-0.2,0-0.3,0.1-0.5c0.1-0.1,0.3-0.2,0.4-0.2h2.3c0.2,0,0.4,0.1,0.5,0.4l3.7,11l3.9-11c0.1-0.2,0.3-0.3,0.5-0.3h2
		c0.2,0,0.4,0.1,0.5,0.3l3.8,11l3.8-11c0.1-0.2,0.3-0.3,0.5-0.3h2.1c0.2,0,0.3,0.1,0.4,0.2s0.1,0.3,0.1,0.5l-5.2,15.3
		C70.3,16.4,70.1,16.6,69.9,16.6z"/>
	<path d="M76.8,8.4c0-4.9,3.6-8.5,8.8-8.5c5.2,0,8.7,3.6,8.7,8.5v1.1H80.1c0.5,2.9,2.6,4.5,5.5,4.5c2.1,0,3.6-0.7,4.6-2.1h3.5
		c-1.3,3-4.2,4.9-8,4.9C80.4,16.9,76.8,13.3,76.8,8.4z M91,6.8c-0.6-2.6-2.8-4-5.4-4c-2.7,0-4.8,1.4-5.4,4H91z"/>
	<path d="M96.7,8.6c0-5.1,3.6-8.6,8.8-8.6c5.1,0,8.7,3.5,8.7,8.6v8h-2.9v-3.5c-1.1,2.6-3.5,4-6.3,4C100.8,16.9,96.7,13.9,96.7,8.6z
		 M111.2,8.4c0-3.3-2.3-5.6-5.6-5.6c-3.4,0-5.6,2.4-5.6,5.6c0,3.3,2.3,5.6,5.6,5.6C108.9,14.1,111.2,11.7,111.2,8.4z"/>
	<path d="M117.4,11.8h3.2c0.1,1.3,1.3,2.3,3.6,2.3c2.4,0,3.6-1,3.6-2.3c0-1.5-1.7-1.7-3.8-2c-2.8-0.4-6.3-0.9-6.3-4.6
		c0-3.2,2.5-5.3,6.4-5.3s6.3,2.2,6.4,5h-3.1c-0.1-1.2-1.3-2.2-3.2-2.2c-2.1,0-3.3,1-3.3,2.3c0,1.5,1.7,1.7,3.7,2
		c2.8,0.4,6.3,0.9,6.3,4.6c0,3.3-2.7,5.4-6.8,5.4C120.1,16.9,117.5,14.8,117.4,11.8z"/>
	<path d="M133.5,8.4c0-4.9,3.6-8.5,8.8-8.5c5.1,0,8.7,3.6,8.7,8.5v1.1h-14.2c0.5,2.9,2.6,4.5,5.5,4.5c2.1,0,3.6-0.7,4.6-2.1h3.5
		c-1.3,3-4.2,4.9-8,4.9C137.1,16.9,133.5,13.3,133.5,8.4z M147.7,6.8c-0.6-2.6-2.8-4-5.4-4c-2.7,0-4.8,1.4-5.4,4H147.7z"/>
	<path d="M58.8,27.7c-1.6,0-3,0.6-3.9,1.8v-6.1h-2v15.5h1.9v-1.8c0.9,1.3,2.3,1.9,4,1.9c3.3,0,5.6-2.3,5.6-5.7S62.1,27.7,58.8,27.7z
		 M58.6,37.3c-2.1,0-3.7-1.6-3.7-3.9c0-2.4,1.6-3.9,3.7-3.9c2.1,0,3.8,1.5,3.8,3.9C62.4,35.7,60.8,37.3,58.6,37.3z"/>
	<path d="M71.2,27.7c-1.8,0-3.4,0.5-4.6,1.4l0.8,1.5c0.9-0.7,2.2-1.2,3.5-1.2c2,0,3,1,3,2.7v0.4h-3.2c-3.3,0-4.5,1.5-4.5,3.3
		c0,1.9,1.6,3.3,4.1,3.3c1.7,0,3-0.6,3.7-1.6v1.4h1.9v-6.7C75.9,29.1,74.2,27.7,71.2,27.7z M70.7,37.5c-1.5,0-2.5-0.7-2.5-1.8
		c0-0.9,0.6-1.7,2.6-1.7h3.1v1.6C73.4,36.8,72.2,37.5,70.7,37.5z"/>
	<path d="M82.9,39c3,0,4.8-1.3,4.8-3.3c0-4.3-7.1-2.2-7.1-4.8c0-0.9,0.9-1.5,2.6-1.5c1.1,0,2.2,0.2,3.2,0.9l0.9-1.6
		c-1-0.6-2.6-1-4.1-1c-2.9,0-4.6,1.3-4.6,3.3c0,4.4,7,2.3,7,4.8c0,0.9-0.8,1.5-2.6,1.5c-1.4,0-3-0.5-3.9-1.2l-0.8,1.6
		C79.2,38.5,81,39,82.9,39z"/>
	<path d="M91.2,25.6c0.8,0,1.4-0.6,1.4-1.3c0-0.7-0.6-1.3-1.4-1.3s-1.4,0.6-1.4,1.3C89.8,25.1,90.4,25.6,91.2,25.6z M90.2,38.9h2
		V27.8h-2V38.9z"/>
	<path d="M100.9,39c2,0,3.7-0.8,4.5-2.4l-1.5-1c-0.7,1.1-1.8,1.6-3,1.6c-2.2,0-3.8-1.5-3.8-3.9s1.6-3.9,3.8-3.9c1.2,0,2.3,0.5,3,1.6
		l1.5-1c-0.9-1.6-2.5-2.4-4.5-2.4c-3.4,0-5.9,2.4-5.9,5.7C95,36.7,97.5,39,100.9,39z"/>
</g>
</svg>
