<?xml version="1.0" encoding="utf-8"?>
<!-- Generator: Adobe Illustrator 26.3.1, SVG Export Plug-In . SVG Version: 6.00 Build 0)  -->
<svg version="1.1" id="katman_1" xmlns="http://www.w3.org/2000/svg" xmlns:xlink="http://www.w3.org/1999/xlink" x="0px" y="0px"
	 viewBox="0 0 180 39" style="enable-background:new 0 0 180 39;" xml:space="preserve">
<style type="text/css">
	.st0{clip-path:url(#SVGID_00000144305377378813668880000007978140340357898670_);}
	.st1{fill:#F1E7CA;}
	.st2{fill:#EFDDAE;}
	.st3{fill:#EBC768;}
</style>
<g>
	<g>
		<defs>
			<rect id="SVGID_1_" width="151" height="39"/>
		</defs>
		<clipPath id="SVGID_00000083064197328715965200000005259446324897947278_">
			<use xlink:href="#SVGID_1_"  style="overflow:visible;"/>
		</clipPath>
		<g style="clip-path:url(#SVGID_00000083064197328715965200000005259446324897947278_);">
			<path className="st1" d="M39.4,30c1.4,4.4-1.8,8.9-6.3,8.9H22.8l13.7-17.8L39.4,30z"/>
			<path className="st2" d="M32.6,9l3.9,12.1L22.8,38.9L9.4,39l0,0L32.6,9z"/>
			<path className="st3" d="M31,3.9L32.6,9L9.4,39H4.2c-3.5,0-5.4-4.1-3.3-6.9L23.8,2.6C25.8,0,29.9,0.7,31,3.9z"/>
			<path d="M69.9,16.7h-2.3c-0.2,0-0.4-0.1-0.5-0.3L63.3,5.5l-3.8,10.8c-0.1,0.2-0.3,0.3-0.5,0.3h-2.4c-0.2,0-0.4-0.1-0.5-0.4L51,1
				c-0.1-0.2,0-0.3,0.1-0.5c0.1-0.1,0.3-0.2,0.4-0.2h2.3c0.2,0,0.4,0.1,0.5,0.4l3.7,11l3.9-11c0.1-0.2,0.3-0.3,0.5-0.3h2
				c0.2,0,0.4,0.1,0.5,0.3l3.8,11l3.8-11c0.1-0.2,0.3-0.3,0.5-0.3h2.1c0.2,0,0.3,0.1,0.4,0.2s0.1,0.3,0.1,0.5l-5.2,15.3
				C70.3,16.5,70.1,16.7,69.9,16.7z"/>
			<path d="M76.8,8.5c0-4.9,3.6-8.5,8.8-8.5c5.2,0,8.7,3.6,8.7,8.5v1.1H80.1c0.5,2.9,2.6,4.5,5.5,4.5c2.1,0,3.6-0.7,4.6-2.1h3.5
				c-1.3,3-4.2,4.9-8,4.9C80.4,17,76.8,13.4,76.8,8.5z M91,6.9c-0.6-2.6-2.8-4-5.4-4c-2.7,0-4.8,1.4-5.4,4H91z"/>
			<path d="M96.7,8.7c0-5.1,3.6-8.6,8.8-8.6c5.1,0,8.7,3.5,8.7,8.6v8h-2.9v-3.5c-1.1,2.6-3.5,4-6.3,4C100.8,17,96.7,14,96.7,8.7z
				 M111.2,8.5c0-3.3-2.3-5.6-5.6-5.6c-3.4,0-5.6,2.4-5.6,5.6c0,3.3,2.3,5.6,5.6,5.6C108.9,14.2,111.2,11.8,111.2,8.5z"/>
			<path d="M117.4,11.9h3.2c0.1,1.3,1.3,2.3,3.6,2.3c2.4,0,3.6-1,3.6-2.3c0-1.5-1.7-1.7-3.8-2c-2.8-0.4-6.3-0.9-6.3-4.6
				c0-3.2,2.5-5.3,6.4-5.3s6.3,2.2,6.4,5h-3.1c-0.1-1.2-1.3-2.2-3.2-2.2c-2.1,0-3.3,1-3.3,2.3c0,1.5,1.7,1.7,3.7,2
				c2.8,0.4,6.3,0.9,6.3,4.6c0,3.3-2.7,5.4-6.8,5.4C120.1,17,117.5,14.9,117.4,11.9z"/>
			<path d="M133.5,8.5c0-4.9,3.6-8.5,8.8-8.5c5.1,0,8.7,3.6,8.7,8.5v1.1h-14.2c0.5,2.9,2.6,4.5,5.5,4.5c2.1,0,3.6-0.7,4.6-2.1h3.5
				c-1.3,3-4.2,4.9-8,4.9C137.1,17,133.5,13.4,133.5,8.5z M147.7,6.9c-0.6-2.6-2.8-4-5.4-4c-2.7,0-4.8,1.4-5.4,4H147.7z"/>
			<path d="M58.8,27.8c-1.6,0-3,0.6-3.9,1.8v-6.1h-2V39h1.9v-1.8c0.9,1.3,2.3,1.9,4,1.9c3.3,0,5.6-2.3,5.6-5.7S62.1,27.8,58.8,27.8z
				 M58.6,37.4c-2.1,0-3.7-1.6-3.7-3.9c0-2.4,1.6-3.9,3.7-3.9c2.1,0,3.8,1.5,3.8,3.9C62.4,35.8,60.8,37.4,58.6,37.4z"/>
			<path d="M75.6,27.9v5.8c0,2.4-1.3,3.7-3.4,3.7c-1.9,0-3-1.1-3-3.3v-6.2h-2v6.4c0,3.3,1.9,4.9,4.8,4.9c1.6,0,3-0.7,3.8-1.8V39h1.9
				V27.9H75.6z"/>
			<path d="M84.6,39.1c3,0,4.8-1.3,4.8-3.3c0-4.3-7.1-2.2-7.1-4.8c0-0.9,0.9-1.5,2.6-1.5c1.1,0,2.2,0.2,3.2,0.9l0.9-1.6
				c-1-0.6-2.6-1-4.1-1c-2.9,0-4.6,1.3-4.6,3.3c0,4.4,7,2.3,7,4.8c0,0.9-0.8,1.5-2.6,1.5c-1.4,0-3-0.5-3.9-1.2L80,37.8
				C81,38.6,82.8,39.1,84.6,39.1z"/>
			<path d="M93,25.7c0.8,0,1.4-0.6,1.4-1.3c0-0.7-0.6-1.3-1.4-1.3s-1.4,0.6-1.4,1.3C91.6,25.2,92.2,25.7,93,25.7z M92,39h2V27.9h-2
				V39z"/>
			<path d="M103.8,27.8c-1.8,0-3.2,0.7-4,1.8v-1.7h-1.9V39h2v-5.7c0-2.4,1.4-3.7,3.5-3.7c1.9,0,3,1.1,3,3.3V39h2v-6.4
				C108.4,29.3,106.5,27.8,103.8,27.8z"/>
			<path d="M122.2,33.5c0-3.4-2.3-5.7-5.5-5.7s-5.6,2.4-5.6,5.7s2.4,5.7,6,5.7c1.8,0,3.4-0.6,4.4-1.8l-1.1-1.3
				c-0.8,0.9-1.9,1.3-3.2,1.3c-2.2,0-3.8-1.3-4-3.3h9C122.2,33.9,122.2,33.7,122.2,33.5z M116.7,29.5c2,0,3.4,1.3,3.6,3.2h-7.1
				C113.4,30.8,114.8,29.5,116.7,29.5z"/>
			<path d="M128.2,39.1c3,0,4.8-1.3,4.8-3.3c0-4.3-7.1-2.2-7.1-4.8c0-0.9,0.9-1.5,2.6-1.5c1.1,0,2.2,0.2,3.2,0.9l0.9-1.6
				c-1-0.6-2.6-1-4.1-1c-2.9,0-4.6,1.3-4.6,3.3c0,4.4,7,2.3,7,4.8c0,0.9-0.8,1.5-2.6,1.5c-1.4,0-3-0.5-3.9-1.2l-0.8,1.6
				C124.6,38.6,126.4,39.1,128.2,39.1z"/>
			<path d="M138.7,39.1c3,0,4.8-1.3,4.8-3.3c0-4.3-7.1-2.2-7.1-4.8c0-0.9,0.9-1.5,2.6-1.5c1.1,0,2.2,0.2,3.2,0.9l0.9-1.6
				c-1-0.6-2.6-1-4.1-1c-2.9,0-4.6,1.3-4.6,3.3c0,4.4,7,2.3,7,4.8c0,0.9-0.8,1.5-2.6,1.5c-1.4,0-3-0.5-3.9-1.2l-0.8,1.6
				C135.1,38.6,136.9,39.1,138.7,39.1z"/>
		</g>
	</g>
</g>
</svg>
