<svg width="24" height="24" viewBox="0 0 24 24" fill="none" xmlns="http://www.w3.org/2000/svg">
<path d="M16.7695 3.19989H16.7799C18.6989 3.19989 20.2545 4.75565 20.2545 6.67451C20.2545 8.59285 18.7 10.1479 16.7822 10.1491L16.7046 10.1473L16.5404 10.1436L16.5048 10.304L15.7698 13.6158L15.7391 13.754L15.8592 13.8288C16.844 14.4425 17.4986 15.5348 17.4986 16.7798C17.4986 18.6988 15.943 20.2544 14.024 20.2544C12.105 20.2544 10.5494 18.6987 10.5494 16.7798C10.5494 16.1351 10.7248 15.5319 11.0304 15.0148L11.1093 14.8813L10.9996 14.7716L8.68282 12.4548L8.57316 12.3451L8.43965 12.424C7.92256 12.7296 7.31934 12.905 6.67461 12.905C4.75564 12.905 3.2 11.3493 3.2 9.43043C3.2 7.51133 4.75575 5.95582 6.67461 5.95582C7.924 5.95582 9.01949 6.61503 9.63209 7.60556L9.70516 7.72371L9.84138 7.69649L13.1482 7.03572L13.3164 7.0021L13.3088 6.83071C13.3065 6.7789 13.3053 6.72683 13.3053 6.67449C13.3053 4.75899 14.8553 3.20553 16.7695 3.19989ZM13.7128 8.32202L13.5735 8.41666L10.3064 9.06937L10.1381 9.10299L10.1458 9.27438C10.1481 9.32619 10.1492 9.37826 10.1492 9.43072C10.1492 10.0754 9.97376 10.6785 9.66819 11.1958L9.58933 11.3293L9.69897 11.4389L12.0158 13.7557L12.1254 13.8654L12.2589 13.7865C12.7756 13.4813 13.378 13.3059 14.022 13.3055L14.2 13.3091L14.3637 13.3124L14.3993 13.1526L15.1242 9.89314L15.1559 9.75065L15.0299 9.67702C14.5375 9.3894 14.1222 8.984 13.8226 8.49956L13.7128 8.32202ZM14.0238 14.7429C12.8986 14.7429 11.9865 15.6552 11.9865 16.7804C11.9865 17.9056 12.8987 18.8177 14.0238 18.8177C15.149 18.8177 16.0613 17.9055 16.0613 16.7804C16.0613 15.6552 15.149 14.7429 14.0238 14.7429ZM6.67437 7.3933C5.54916 7.3933 4.63707 8.30559 4.63707 9.43073C4.63707 10.5559 5.54922 11.468 6.67437 11.468C7.79955 11.468 8.7118 10.5559 8.7118 9.43073C8.7118 8.30554 7.79953 7.3933 6.67437 7.3933ZM16.7799 4.63732C15.6548 4.63732 14.7425 5.54946 14.7425 6.67463C14.7425 7.79982 15.6548 8.71206 16.7799 8.71206C17.9051 8.71206 18.8172 7.79977 18.8172 6.67463C18.8172 5.54944 17.9051 4.63732 16.7799 4.63732Z" fill="black" stroke="white" stroke-width="0.4"/>
</svg>
