<?xml version="1.0" encoding="utf-8"?>
<!-- Generator: Adobe Illustrator 26.3.1, SVG Export Plug-In . SVG Version: 6.00 Build 0)  -->
<svg version="1.1" id="katman_1" xmlns="http://www.w3.org/2000/svg" xmlns:xlink="http://www.w3.org/1999/xlink" x="0px" y="0px"
	 viewBox="0 0 180 39" style="enable-background:new 0 0 180 39;" xml:space="preserve">
<style type="text/css">
	.st0{fill:#F2C7C2;}
	.st1{fill:#F1AAA0;}
	.st2{fill:#EE5F4C;}
</style>
<g id="katman_1_00000170269975843138151170000017704927142068196226_">
</g>
<g id="katman_2_00000012469143580726060240000003592712735985107592_">
	<path className="st0" d="M39.4,30c1.4,4.4-1.8,8.9-6.3,8.9L22.7,39l13.8-17.8L39.4,30z"/>
	<path className="st1" d="M32.6,9l3.9,12.2L22.8,39H9.4l0,0L32.6,9z"/>
	<path className="st2" d="M30.9,3.9L32.6,9L9.4,39H4.2c-3.5,0-5.4-4.1-3.3-6.9L23.8,2.6C25.8,0,29.9,0.7,30.9,3.9z"/>
	<path d="M69.9,16.7h-2.3c-0.2,0-0.4-0.1-0.5-0.3L63.3,5.5l-3.8,10.8c-0.1,0.2-0.3,0.3-0.5,0.3h-2.3c-0.2,0-0.4-0.1-0.5-0.4L51,1.1
		c-0.1-0.2,0-0.3,0.1-0.5c0.1-0.1,0.3-0.2,0.4-0.2h2.3c0.2,0,0.4,0.1,0.5,0.4l3.7,11l3.9-11c0.1-0.2,0.3-0.3,0.5-0.3h2
		c0.2,0,0.4,0.1,0.5,0.3l3.8,11l3.8-11c0.1-0.2,0.3-0.3,0.5-0.3h2.1c0.2,0,0.3,0.1,0.4,0.2s0.1,0.3,0.1,0.5l-5.2,15.3
		C70.3,16.6,70.1,16.7,69.9,16.7z"/>
	<path d="M76.8,8.5c0-4.9,3.6-8.5,8.8-8.5c5.2,0,8.7,3.6,8.7,8.5v1.1H80.1c0.5,2.9,2.6,4.5,5.5,4.5c2.1,0,3.6-0.7,4.6-2.1h3.5
		c-1.3,3-4.2,4.9-8,4.9C80.4,17.1,76.8,13.4,76.8,8.5z M91,6.9c-0.6-2.6-2.8-4-5.4-4c-2.7,0-4.8,1.4-5.4,4H91z"/>
	<path d="M96.7,8.7c0-5.1,3.6-8.6,8.8-8.6c5.1,0,8.7,3.5,8.7,8.6v8h-2.9v-3.5c-1.1,2.6-3.5,4-6.3,4C100.8,17.1,96.7,14,96.7,8.7z
		 M111.1,8.5c0-3.3-2.3-5.6-5.6-5.6c-3.4,0-5.6,2.4-5.6,5.6c0,3.3,2.3,5.6,5.6,5.6C108.9,14.2,111.1,11.8,111.1,8.5z"/>
	<path d="M117.4,11.9h3.2c0.1,1.3,1.3,2.3,3.6,2.3c2.4,0,3.6-1,3.6-2.3c0-1.5-1.7-1.7-3.8-2c-2.8-0.4-6.3-0.9-6.3-4.6
		c0-3.2,2.5-5.3,6.4-5.3s6.3,2.2,6.4,5h-3.1c-0.1-1.2-1.3-2.2-3.2-2.2c-2.1,0-3.3,1-3.3,2.3c0,1.5,1.7,1.7,3.7,2
		c2.8,0.4,6.3,0.9,6.3,4.6c0,3.3-2.7,5.4-6.8,5.4C120.1,17.1,117.5,14.9,117.4,11.9z"/>
	<path d="M133.5,8.5c0-4.9,3.6-8.5,8.8-8.5c5.1,0,8.7,3.6,8.7,8.5v1.1h-14.2c0.5,2.9,2.6,4.5,5.5,4.5c2.1,0,3.6-0.7,4.6-2.1h3.5
		c-1.3,3-4.2,4.9-8,4.9C137.1,17.1,133.5,13.4,133.5,8.5z M147.7,6.9c-0.6-2.6-2.8-4-5.4-4c-2.7,0-4.8,1.4-5.4,4H147.7z"/>
	<g>
		<path d="M58.7,23.7c-1.6,0-3.1,0.6-4,1.9v-1.8h-1.9V39h2v-5.8c0.9,1.2,2.3,1.8,3.9,1.8c3.3,0,5.6-2.3,5.6-5.7
			C64.4,26,62,23.7,58.7,23.7z M58.6,33.3c-2.1,0-3.7-1.6-3.7-3.9c0-2.4,1.6-3.9,3.7-3.9c2.1,0,3.8,1.6,3.8,3.9
			C62.3,31.8,60.7,33.3,58.6,33.3z"/>
		<path d="M69.1,25.7v-1.9h-1.9V35h2v-5.5c0-2.4,1.3-3.8,3.5-3.8c0.1,0,0.3,0,0.5,0v-2C71.2,23.7,69.8,24.4,69.1,25.7z"/>
		<path d="M80.3,35.1c3.3,0,5.8-2.4,5.8-5.7s-2.4-5.7-5.8-5.7s-5.8,2.4-5.8,5.7C74.5,32.7,76.9,35.1,80.3,35.1z M80.3,33.3
			c-2.1,0-3.8-1.6-3.8-3.9c0-2.4,1.6-3.9,3.8-3.9S84,27,84,29.4C84,31.8,82.4,33.3,80.3,33.3z"/>
		<path d="M92.9,20.9c0.6,0,1.1,0.2,1.6,0.5l0.6-1.5c-0.6-0.4-1.4-0.7-2.3-0.7c-2.4,0-3.7,1.4-3.7,3.6v1h-1.9v1.7h1.9V35h2v-9.5h3.2
			v-1.7h-3.2v-1C91.1,21.6,91.7,20.9,92.9,20.9z"/>
		<path d="M106.1,29.5c0-3.4-2.3-5.7-5.5-5.7S95,26.2,95,29.5s2.4,5.7,6,5.7c1.8,0,3.4-0.6,4.4-1.8l-1.1-1.3
			c-0.8,0.9-1.9,1.3-3.2,1.3c-2.2,0-3.8-1.3-4-3.3h9C106.1,29.9,106.1,29.6,106.1,29.5z M100.6,25.4c2,0,3.4,1.3,3.6,3.2h-7.1
			C97.3,26.7,98.7,25.4,100.6,25.4z"/>
		<path d="M112.1,35.1c3,0,4.8-1.3,4.8-3.3c0-4.3-7.1-2.2-7.1-4.8c0-0.9,0.9-1.5,2.6-1.5c1.1,0,2.2,0.2,3.2,0.9l0.9-1.6
			c-1-0.6-2.6-1-4.1-1c-2.9,0-4.6,1.3-4.6,3.3c0,4.4,7,2.3,7,4.8c0,0.9-0.8,1.5-2.6,1.5c-1.4,0-3-0.5-3.9-1.2l-0.8,1.6
			C108.5,34.5,110.3,35.1,112.1,35.1z"/>
		<path d="M122.7,35.1c3,0,4.8-1.3,4.8-3.3c0-4.3-7.1-2.2-7.1-4.8c0-0.9,0.9-1.5,2.6-1.5c1.1,0,2.2,0.2,3.2,0.9l0.9-1.6
			c-1-0.6-2.6-1-4.1-1c-2.9,0-4.6,1.3-4.6,3.3c0,4.4,7,2.3,7,4.8c0,0.9-0.8,1.5-2.6,1.5c-1.4,0-3-0.5-3.9-1.2l-0.8,1.6
			C119,34.5,120.8,35.1,122.7,35.1z"/>
		<path d="M131,21.7c0.8,0,1.4-0.6,1.4-1.3c0-0.7-0.6-1.3-1.4-1.3c-0.8,0-1.4,0.6-1.4,1.3C129.6,21.1,130.2,21.7,131,21.7z M130,35
			h2V23.8h-2V35z"/>
		<path d="M140.6,35.1c3.3,0,5.8-2.4,5.8-5.7s-2.4-5.7-5.8-5.7c-3.3,0-5.8,2.4-5.8,5.7C134.8,32.7,137.3,35.1,140.6,35.1z
			 M140.6,33.3c-2.1,0-3.8-1.6-3.8-3.9c0-2.4,1.6-3.9,3.8-3.9s3.7,1.5,3.7,3.9C144.3,31.8,142.8,33.3,140.6,33.3z"/>
		<path d="M155.1,23.7c-1.8,0-3.2,0.7-4,1.8v-1.7h-1.9V35h2v-5.7c0-2.4,1.4-3.7,3.5-3.7c1.9,0,3,1.1,3,3.3V35h2v-6.4
			C159.7,25.3,157.8,23.7,155.1,23.7z"/>
		<path d="M167.5,23.7c-1.8,0-3.4,0.5-4.6,1.4l0.8,1.5c0.9-0.7,2.2-1.2,3.5-1.2c2,0,3,1,3,2.7v0.4H167c-3.3,0-4.5,1.5-4.5,3.3
			c0,1.9,1.6,3.3,4.1,3.3c1.7,0,3-0.6,3.7-1.6V35h1.9v-6.7C172.3,25.2,170.6,23.7,167.5,23.7z M167.1,33.5c-1.5,0-2.5-0.7-2.5-1.8
			c0-0.9,0.6-1.7,2.6-1.7h3.1v1.6C169.8,32.8,168.6,33.5,167.1,33.5z"/>
		<path d="M176,35h2V19.4h-2V35z"/>
	</g>
</g>
</svg>
