<?xml version="1.0" encoding="utf-8"?>
<!-- Generator: Adobe Illustrator 26.3.1, SVG Export Plug-In . SVG Version: 6.00 Build 0)  -->
<svg version="1.1" id="katman_1" xmlns="http://www.w3.org/2000/svg" xmlns:xlink="http://www.w3.org/1999/xlink" x="0px" y="0px"
	 viewBox="0 0 180 39" style="enable-background:new 0 0 180 39;" xml:space="preserve">
<style type="text/css">
	.st0{fill:#B9DDE2;}
	.st1{fill:#91CED6;}
	.st2{fill:#2EA8B7;}
</style>
<g>
	<path className="st0" d="M39.4,30c1.4,4.4-1.8,8.9-6.3,8.9H22.8l13.7-17.8L39.4,30z"/>
	<path className="st1" d="M32.6,9l3.9,12.1L22.8,38.9L9.4,39l0,0L32.6,9z"/>
	<path className="st2" d="M31,3.9L32.6,9L9.4,39H4.2c-3.5,0-5.4-4.1-3.3-6.9L23.8,2.6C25.8,0,29.9,0.7,31,3.9z"/>
	<path d="M69.9,16.7h-2.3c-0.2,0-0.4-0.1-0.5-0.3L63.3,5.5l-3.8,10.8c-0.1,0.2-0.3,0.3-0.5,0.3h-2.4c-0.2,0-0.4-0.1-0.5-0.4L51,1
		c-0.1-0.2,0-0.3,0.1-0.5c0.1-0.1,0.3-0.2,0.4-0.2h2.3c0.2,0,0.4,0.1,0.5,0.4l3.7,11l3.9-11c0.1-0.2,0.3-0.3,0.5-0.3h2
		c0.2,0,0.4,0.1,0.5,0.3l3.8,11l3.8-11c0.1-0.2,0.3-0.3,0.5-0.3h2.1c0.2,0,0.3,0.1,0.4,0.2s0.1,0.3,0.1,0.5l-5.2,15.3
		C70.3,16.5,70.1,16.7,69.9,16.7z"/>
	<path d="M76.8,8.5c0-4.9,3.6-8.5,8.8-8.5c5.2,0,8.7,3.6,8.7,8.5v1.1H80.1c0.5,2.9,2.6,4.5,5.5,4.5c2.1,0,3.6-0.7,4.6-2.1h3.5
		c-1.3,3-4.2,4.9-8,4.9C80.4,17,76.8,13.4,76.8,8.5z M91,6.9c-0.6-2.6-2.8-4-5.4-4c-2.7,0-4.8,1.4-5.4,4H91z"/>
	<path d="M96.7,8.7c0-5.1,3.6-8.6,8.8-8.6c5.1,0,8.7,3.5,8.7,8.6v8h-2.9v-3.5c-1.1,2.6-3.5,4-6.3,4C100.8,17,96.7,14,96.7,8.7z
		 M111.2,8.5c0-3.3-2.3-5.6-5.6-5.6c-3.4,0-5.6,2.4-5.6,5.6c0,3.3,2.3,5.6,5.6,5.6C108.9,14.2,111.2,11.8,111.2,8.5z"/>
	<path d="M117.4,11.9h3.2c0.1,1.3,1.3,2.3,3.6,2.3c2.4,0,3.6-1,3.6-2.3c0-1.5-1.7-1.7-3.8-2c-2.8-0.4-6.3-0.9-6.3-4.6
		c0-3.2,2.5-5.3,6.4-5.3s6.3,2.2,6.4,5h-3.1c-0.1-1.2-1.3-2.2-3.2-2.2c-2.1,0-3.3,1-3.3,2.3c0,1.5,1.7,1.7,3.7,2
		c2.8,0.4,6.3,0.9,6.3,4.6c0,3.3-2.7,5.4-6.8,5.4C120.1,17,117.5,14.9,117.4,11.9z"/>
	<path d="M133.5,8.5c0-4.9,3.6-8.5,8.8-8.5c5.1,0,8.7,3.6,8.7,8.5v1.1h-14.2c0.5,2.9,2.6,4.5,5.5,4.5c2.1,0,3.6-0.7,4.6-2.1h3.5
		c-1.3,3-4.2,4.9-8,4.9C137.1,17,133.5,13.4,133.5,8.5z M147.7,6.9c-0.6-2.6-2.8-4-5.4-4c-2.7,0-4.8,1.4-5.4,4H147.7z"/>
	<path d="M55.6,37.7c3,0,4.8-1.3,4.8-3.3c0-4.3-7.1-2.2-7.1-4.8c0-0.9,0.9-1.5,2.6-1.5c1.1,0,2.2,0.2,3.2,0.9l0.9-1.6
		c-1-0.6-2.6-1-4.1-1c-2.9,0-4.6,1.3-4.6,3.3c0,4.4,7,2.3,7,4.8c0,0.9-0.8,1.5-2.6,1.5c-1.4,0-3-0.5-3.9-1.2L51,36.4
		C51.9,37.1,53.8,37.7,55.6,37.7z"/>
	<path d="M68.6,35.5c-0.4,0.3-1,0.5-1.6,0.5c-1.1,0-1.7-0.7-1.7-1.9v-6h3.2v-1.7h-3.2V24h-2v2.4h-1.9v1.7h1.9v6.1
		c0,2.2,1.3,3.5,3.5,3.5c0.9,0,1.8-0.3,2.4-0.8L68.6,35.5z"/>
	<path d="M75.7,26.3c-1.8,0-3.4,0.5-4.6,1.4l0.8,1.5c0.9-0.7,2.2-1.2,3.5-1.2c2,0,3,1,3,2.7v0.4h-3.2c-3.3,0-4.5,1.5-4.5,3.3
		c0,1.9,1.6,3.3,4.1,3.3c1.7,0,3-0.6,3.7-1.6v1.5h1.9v-6.7C80.4,27.8,78.7,26.3,75.7,26.3z M75.2,36.2c-1.5,0-2.5-0.7-2.5-1.8
		c0-0.9,0.6-1.7,2.6-1.7h3.1v1.6C77.9,35.5,76.7,36.2,75.2,36.2z"/>
	<path d="M90.1,26.3c-1.8,0-3.2,0.7-4,1.8v-1.7h-1.9v11.1h2v-5.7c0-2.4,1.4-3.7,3.5-3.7c1.9,0,3,1.1,3,3.3v6.2h2v-6.4
		C94.7,27.9,92.8,26.3,90.1,26.3z"/>
	<path d="M107,22v6.1c-0.9-1.2-2.3-1.8-3.9-1.8c-3.3,0-5.6,2.3-5.6,5.7s2.4,5.7,5.6,5.7c1.6,0,3.1-0.6,4-1.9v1.8h1.9V22H107z
		 M103.3,35.9c-2.1,0-3.8-1.6-3.8-3.9s1.6-3.9,3.8-3.9c2.1,0,3.7,1.5,3.7,3.9S105.4,35.9,103.3,35.9z"/>
	<path d="M116.9,26.3c-1.8,0-3.4,0.5-4.6,1.4l0.8,1.5c0.9-0.7,2.2-1.2,3.5-1.2c2,0,3,1,3,2.7v0.4h-3.1c-3.3,0-4.5,1.5-4.5,3.3
		c0,1.9,1.6,3.3,4.1,3.3c1.7,0,3-0.6,3.7-1.6v1.5h1.9v-6.7C121.7,27.8,119.9,26.3,116.9,26.3z M116.4,36.2c-1.5,0-2.5-0.7-2.5-1.8
		c0-0.9,0.6-1.7,2.6-1.7h3.1v1.6C119.1,35.5,117.9,36.2,116.4,36.2z"/>
	<path d="M127.3,28.3v-1.9h-1.9v11.1h2V32c0-2.4,1.3-3.8,3.5-3.8c0.1,0,0.3,0,0.5,0v-2C129.4,26.3,128,27,127.3,28.3z"/>
	<path d="M142.2,22v6.1c-0.9-1.2-2.3-1.8-3.9-1.8c-3.3,0-5.6,2.3-5.6,5.7s2.4,5.7,5.6,5.7c1.6,0,3.1-0.6,4-1.9v1.8h1.9V22H142.2z
		 M138.5,35.9c-2.1,0-3.8-1.6-3.8-3.9s1.6-3.9,3.8-3.9c2.1,0,3.7,1.5,3.7,3.9S140.6,35.9,138.5,35.9z"/>
</g>
</svg>
